<svg xmlns="http://www.w3.org/2000/svg" fill="none" viewBox="200 300 600 max" width="400" height="400"><path fill="url(#a)" d="M79.359 151.847c-54.252 1.528-69.167 75-96.5 85v276h479.5v-512c-22.5 62.5-81.5 118-151.5 95-61.185-20.104-68.786 122.108-132.5 131.5-53.005 7.813-45.444-77.008-99-75.5Z"/><path fill="#76BA28" fill-rule="evenodd" d="M405.875 82.443c-26.855 19.2-59.925 27.565-95.796 15.779-7.195-2.364-13.464-2.309-19.104-.501-5.679 1.82-10.906 5.477-15.875 10.61-10.007 10.337-18.526 26.169-27.317 43.344-.843 1.646-1.687 3.304-2.536 4.969-7.923 15.547-16.162 31.716-25.901 44.855-10.792 14.56-23.732 25.831-40.622 28.321-14.033 2.069-24.236-2.031-32.337-9.328-7.934-7.148-13.821-17.347-19.493-27.292l-.385-.676c-5.627-9.869-11.107-19.479-18.305-26.646-7.241-7.21-16.171-11.887-28.775-11.532-25.833.727-42.495 18.528-56.37 38.262-3.193 4.542-6.21 9.142-9.152 13.629l-.717 1.095c-3.159 4.814-6.245 9.488-9.334 13.706-6.102 8.336-12.539 15.376-20.138 18.157L-18 234.499c6.067-2.22 11.745-8.113 17.822-16.414 3.001-4.1 6.021-8.67 9.187-13.496l.724-1.104c2.935-4.476 5.994-9.142 9.236-13.753 13.98-19.884 31.902-39.584 60.32-40.384 14.174-.399 24.382 4.961 32.443 12.987 7.688 7.654 13.463 17.787 18.967 27.443l.538.945c5.758 10.094 11.267 19.541 18.496 26.054 7.062 6.361 15.791 9.935 28.261 8.097 14.967-2.207 26.87-12.234 37.335-26.352 9.474-12.782 17.519-28.563 25.482-44.185.841-1.65 1.681-3.298 2.521-4.94 8.722-17.039 17.558-33.577 28.175-44.544 5.343-5.52 11.246-9.748 17.942-11.894 6.736-2.158 14.089-2.15 22.19.513 34.129 11.213 65.559 3.328 91.328-15.096C428.799 59.907 448.898 30.858 460.007 0l4.704 1.694c-11.391 31.642-32.042 61.592-58.836 80.749Z" clip-rule="evenodd"/><defs><linearGradient id="a" x1="222.609" x2="222.609" y1=".847=" y2="512.847" gradientUnits="userSpaceOnUse"><stop stop-color="#76BA27"/><stop offset="1" stop-color="#D9D9D9" stop-opacity="0"/></linearGradient></defs></svg>
